<svg xmlns="http://www.w3.org/2000/svg" fill="none" viewBox="0 0 2263 2263"><mask id="a" style="mask-type:luminance" width="2263" height="2263" x="0" y="0" maskUnits="userSpaceOnUse"><path fill="#fff" d="M0 1131.35c0 624.82 506.519 1131.37 1131.37 1131.37 624.84 0 1131.36-506.55 1131.36-1131.37C2262.73 506.507 1756.21 0 1131.37 0 506.519 0 0 506.507 0 1131.35z"/></mask><g mask="url(#a)"><path fill="#EF3628" d="M.002 1131.35c0 624.84 506.522 1131.36 1131.358 1131.36 624.85 0 1131.36-506.52 1131.36-1131.36C2262.72 506.523 1756.21-.006 1131.36-.006 506.524-.006.002 506.523.002 1131.35z"/><path fill="#161731" d="M1555.69 883.76s42.7-115.172 20.1-172.915c-22.61-57.77-12.2-128.109-7.53-185.767 7.53-92.897-56.1-184.08-124.18-209.175-61.5-22.7-232.4-37.394-277.56-46.973-91.43-19.37-284.058-32.152-359.081 77.849-61.242 89.794-55.254 119.409-92.902 185.809-62.767 110.667-28.237 244.927 7.534 331.901 35.777 86.989 62.778 34.66 62.778 34.66l770.841-15.389z"/><path fill="#CFE0E6" d="M1905.07 1839.47c-205.77-32.87-478.11-121.76-518.99-203.36-37.48-74.88-38.74-167.65-35.27-316.4l-206.9 65.71-206.915-65.71c3.483 148.75 2.207 241.52-35.285 316.4-40.858 81.6-313.224 170.49-518.99 203.36-259.502 41.45-225.61 454.81-225.61 454.81H2130.7s33.89-413.36-225.63-454.81z"/><path fill="#E07A54" d="M1465.67 1703.49c-39.81-22.14-68.38-45.04-79.58-67.38-30.63-61.18-37.08-134.34-36.51-240.18-24.95-20.08-52.95-36.78-83.24-49.4l-122.43 38.88-136.69-43.4a344.826 344.826 0 00-69.152 35.28c1.38 116-3.957 194.11-36.356 258.82-13.268 26.48-50.884 53.7-102.688 79.54 33.494 146.22 169.423 255.64 332.046 255.64 167.11 0 306.06-115.53 334.6-267.8z"/><path fill="#C96547" d="M1375.87 1612.96c-27.45-70.95-28.18-159.45-25.06-293.25l-206.9 65.7-206.913-65.7c2.049 87.6 2.439 155.76-5.24 212.32 97.863 79.78 316.513 227.84 444.113 80.93z"/><path fill="#E07A54" d="M778.657 884.267s-21.001-65.32-61.736-43.44c-40.72 21.88-19.075 275.443 40.176 304.773 59.251 29.33 73.731-49.88 73.731-49.88l-52.171-211.453zM1516.54 884.267s20.99-65.32 61.73-43.44c40.72 21.88 19.07 275.443-40.17 304.773-59.27 29.33-73.73-49.88-73.73-49.88l52.17-211.453z"/><path fill="#F5966D" d="M1532.34 870.894c-4.63-322.92-148.64-469.947-388.43-470.787-239.806.84-383.814 147.867-388.448 470.787-1.64 113.933 21.467 260.386 45.702 347.386 33.301 119.57 193.505 216.51 278.966 259.64 20.98 10.6 38.34 10.39 63.78 10.39 25.42 0 42.79.21 63.79-10.39 85.44-43.13 245.63-140.07 278.95-259.64 24.22-87 47.33-233.453 45.69-347.386z"/><path fill="#EA6C4F" d="M1148.61 1232.16h-136.93c27.91 107.75 132.43 96.99 132.43 96.99s100.9 10.76 141.44-96.99h-136.94z"/><path fill="#DFEAEE" d="M1148.61 1224.45l-128.32 10.35s27.72 47.25 128.32 47.25c99.41 0 128.32-47.25 128.32-47.25l-128.32-10.35z"/><path fill="#C85E3C" d="M1153.42 1143.44s29.59-45.36 58.75-16.35c0 0 .4 13-26.04 10.68 0 0-11.54-5.12-32.71 5.67zM1139.81 1143.05s-31.99-47.13-59.68-19.74c0 0 .26 12.98 26.62 12.17 0 0 11.28-4.45 33.06 7.57z"/><path fill="#E07A54" d="M1465.67 1703.49c-39.81-22.14-68.38-45.04-79.58-67.38-30.63-61.18-37.08-134.34-36.51-240.18-24.95-20.08-52.95-36.78-83.24-49.4l-122.43 38.88-136.69-43.4a344.826 344.826 0 00-69.152 35.28c1.38 116-3.957 194.11-36.356 258.82-13.268 26.48-50.884 53.7-102.688 79.54 33.494 146.22 169.423 255.64 332.046 255.64 167.11 0 306.06-115.53 334.6-267.8z"/><path fill="#C96547" d="M1375.87 1612.96c-27.45-70.95-28.18-159.45-25.06-293.25l-206.9 65.7-206.913-65.7c2.049 87.6 2.439 155.76-5.24 212.32 97.863 79.78 316.513 227.84 444.113 80.93z"/><path fill="#E07A54" d="M778.657 884.267s-21.001-65.32-61.736-43.44c-40.72 21.88-19.075 275.443 40.176 304.773 59.251 29.33 73.731-49.88 73.731-49.88l-52.171-211.453zM1516.54 884.267s20.99-65.32 61.73-43.44c40.72 21.88 19.07 275.443-40.17 304.773-59.27 29.33-73.73-49.88-73.73-49.88l52.17-211.453z"/><path fill="#F5966D" d="M1532.34 870.894c-4.63-322.92-148.64-469.947-388.43-470.787-239.806.84-383.814 147.867-388.448 470.787-1.64 113.933 21.467 260.386 45.702 347.386 33.301 119.57 193.505 216.51 278.966 259.64 20.98 10.6 38.34 10.39 63.78 10.39 25.42 0 42.79.21 63.79-10.39 85.44-43.13 245.63-140.07 278.95-259.64 24.22-87 47.33-233.453 45.69-347.386z"/><path fill="#EA6C4F" d="M1148.61 1232.16h-136.93c27.91 107.75 132.43 96.99 132.43 96.99s100.9 10.76 141.44-96.99h-136.94z"/><path fill="#DFEAEE" d="M1148.61 1224.45l-128.32 10.35s27.72 47.25 128.32 47.25c99.41 0 128.32-47.25 128.32-47.25l-128.32-10.35z"/><path fill="#C85E3C" d="M1153.42 1143.44s29.59-45.36 58.75-16.35c0 0 .4 13-26.04 10.68 0 0-11.54-5.12-32.71 5.67zM1139.81 1143.05s-31.99-47.13-59.68-19.74c0 0 .26 12.98 26.62 12.17 0 0 11.28-4.45 33.06 7.57zM1193.83 1206.08c-15.32-5.65-39.81 3.49-45.22 7.25-5.4-3.76-29.9-12.9-45.22-7.25-15.32 5.63-91.71 26.08-91.71 26.08 42.34 15.07 136.93 12.24 136.93 12.24s94.6 2.83 136.94-12.24c0 0-76.4-20.45-91.72-26.08z"/><path fill="#FEF5F6" d="M881.856 914.853v-.013c11.135-18.067 41.628-31.08 77.635-31.08 36.008 0 66.499 13.013 77.609 31.08h.02l-.02.013c-11.11 18.067-41.601 31.067-77.609 31.067-36.007 0-66.5-13-77.635-31.067z"/><path fill="#161731" d="M881.857 912.36c17.615-16.333 41.628-28.6 77.635-28.6 27.033 0 52.968 10 77.608 28.6-35.52-55.893-92.003-56.84-141.919-33.293 0 0-6.84 1.546-34.326 27.4l21.002 5.893z"/><path fill="#E07A54" d="M873.793 880.507s.535-.44 1.612-1.254c7.555-5.746 40.895-28.906 83.788-28.88 23.488.014 49.867 6.867 76.767 27.36.83.64 2.01.48 2.64-.346.63-.84.47-2.014-.35-2.64-27.53-20.987-54.834-28.147-79.057-28.134-50.599.04-87.641 30.894-87.805 31a1.88 1.88 0 102.405 2.894z"/><path fill="#161731" d="M924.023 888.307c-5.187 6.64-8.305 14.973-8.305 24.053 0 12.373 5.745 23.387 14.71 30.547 9.039 1.933 18.815 3.013 29.063 3.013 5.883 0 11.599-.373 17.131-1.027 10.461-7.026 17.364-18.973 17.364-32.533 0-10.267-3.988-19.587-10.463-26.547a140.644 140.644 0 00-24.032-2.053c-12.723 0-24.737 1.653-35.468 4.547zM1222.99 800.427s3.51 36.826 35.79 27.96c45.2-12.4 134.81-24.467 196.79 0 7.7 3.04-62.98-118.84-232.58-27.96zM1064.43 800.427s-3.5 36.826-35.77 27.96c-45.207-12.4-134.827-24.467-196.803 0-7.691 3.04 62.986-118.84 232.573-27.96z"/><path fill="#FEF5F6" d="M1405.94 914.853v-.013c-11.12-18.067-41.63-31.08-77.61-31.08-36.02 0-66.52 13.013-77.64 31.08v.013c11.12 18.067 41.62 31.067 77.64 31.067 35.98 0 66.49-13 77.61-31.067z"/><path fill="#161731" d="M1405.94 912.36c-17.61-16.333-41.63-28.6-77.61-28.6-27.04 0-52.98 10-77.64 28.6 35.52-55.893 92.02-56.84 141.92-33.293 0 0 6.84 1.546 34.36 27.4l-21.03 5.893z"/><path fill="#E07A54" d="M1416.42 877.613c-.16-.106-37.2-30.96-87.81-31-24.23-.013-51.54 7.147-79.06 28.134-.84.626-1 1.8-.36 2.64a1.89 1.89 0 002.64.36c26.91-20.507 53.3-27.36 76.78-27.374 24.52 0 45.9 7.534 61.14 15.094 7.63 3.773 13.71 7.546 17.88 10.373 2.08 1.413 3.7 2.587 4.76 3.413 1.08.814 1.62 1.254 1.62 1.254.8.666 1.98.56 2.65-.24.67-.8.56-1.987-.24-2.654z"/><path fill="#161731" d="M1363.78 888.307c5.19 6.64 8.31 14.973 8.31 24.053 0 12.373-5.75 23.387-14.71 30.547-9.04 1.933-18.81 3.013-29.05 3.013-5.9 0-11.6-.373-17.15-1.027-10.47-7.026-17.35-18.973-17.35-32.533 0-10.267 3.98-19.587 10.44-26.547 7.62-1.32 15.68-2.053 24.06-2.053 12.7 0 24.72 1.653 35.45 4.547z"/><path fill="#161731" d="M1153.42 374.467c-280.83 0-401.584 138.973-406.216 461.88-.198 13.32 8.23 61.64 8.681 75.706 40.345-23.546 43.468-101 49.637-189.12 9.708-138.853 142.342-212.973 206.158-196.12 56.58 14.96 112.17 33.4 239.01-4.253 152.81-45.387 190.76 111.693 205.44 205.853 13.96 89.467 70.24 174.92 75.81 183.227.44-13.92 12.04-62.107 11.84-75.293-4.63-322.907-116.81-461.88-390.36-461.88z"/><path fill="#99AFB6" d="M1522.82 1731.59c-3.55-1.58-7.05-3.14-10.51-4.72-39.58 173.22-194.92 302.85-379.96 302.85-181.758 0-334.848-125.07-377.748-293.67-3.473 1.47-6.989 2.95-10.532 4.42 44.699 172.66 201.83 300.56 388.28 300.56 189.63 0 348.92-132.31 390.47-309.44z"/></g></svg>